<svg width="26" height="26" viewBox="0 0 26 26" fill="none" xmlns="http://www.w3.org/2000/svg">
<path d="M12.7927 16.7904C15.0006 16.7904 16.7904 15.0006 16.7904 12.7927C16.7904 10.5848 15.0006 8.79492 12.7927 8.79492C10.5848 8.79492 8.79492 10.5848 8.79492 12.7927C8.79492 15.0006 10.5848 16.7904 12.7927 16.7904Z" stroke="white" stroke-width="1.5" stroke-linecap="round" stroke-linejoin="round"/>
<path d="M18.0999 20.7885C16.319 21.9709 14.1942 22.5247 12.0627 22.3621C9.93123 22.1994 7.91512 21.3295 6.33428 19.8906C4.75345 18.4516 3.69844 16.5259 3.33666 14.4191C2.97488 12.3122 3.32705 10.1449 4.33729 8.26099C5.34754 6.37709 6.95799 4.88451 8.9131 4.0201C10.8682 3.15569 13.056 2.96896 15.1293 3.48953C17.2027 4.0101 19.0428 5.20816 20.3577 6.89361C21.6726 8.57906 22.3869 10.6553 22.3874 12.793C22.3874 15.0018 21.5879 16.7908 19.589 16.7908C17.5901 16.7908 16.7906 15.0018 16.7906 12.793V8.79528" stroke="white" stroke-width="1.5" stroke-linecap="round" stroke-linejoin="round"/>
</svg>
