<svg width="26" height="27" viewBox="0 0 26 27" fill="none" xmlns="http://www.w3.org/2000/svg">
<path d="M12.7929 14.4301C14.5592 14.4301 15.9911 12.9982 15.9911 11.2319C15.9911 9.46557 14.5592 8.03369 12.7929 8.03369C11.0266 8.03369 9.59473 9.46557 9.59473 11.2319C9.59473 12.9982 11.0266 14.4301 12.7929 14.4301Z" stroke="white" stroke-width="1.5" stroke-linecap="round" stroke-linejoin="round"/>
<path d="M20.7884 11.2318C20.7884 18.4278 12.7929 24.0246 12.7929 24.0246C12.7929 24.0246 4.79736 18.4278 4.79736 11.2318C4.79736 9.11129 5.63974 7.0776 7.13919 5.57815C8.63864 4.07871 10.6723 3.23633 12.7929 3.23633C14.9134 3.23633 16.9471 4.07871 18.4465 5.57815C19.946 7.0776 20.7884 9.11129 20.7884 11.2318V11.2318Z" stroke="white" stroke-width="1.5" stroke-linecap="round" stroke-linejoin="round"/>
</svg>
