<svg width="26" height="29" viewBox="0 0 26 29" fill="none" xmlns="http://www.w3.org/2000/svg">
<path d="M15.9312 4.40308C17.2873 4.76704 18.5239 5.48132 19.5168 6.47422C20.5097 7.46712 21.224 8.70371 21.588 10.0599" stroke="white" stroke-width="1.5" stroke-linecap="round" stroke-linejoin="round"/>
<path d="M15.1016 7.49121C15.9172 7.70784 16.6611 8.13623 17.2579 8.73298C17.8546 9.32974 18.283 10.0736 18.4996 10.8893" stroke="white" stroke-width="1.5" stroke-linecap="round" stroke-linejoin="round"/>
<path d="M9.2446 18.6016C10.0674 20.3006 11.4412 21.671 13.1424 22.4894C13.2679 22.5488 13.4067 22.5745 13.5451 22.564C13.6836 22.5535 13.8169 22.5071 13.932 22.4294L16.4306 20.7604C16.5409 20.6855 16.6685 20.6398 16.8013 20.6276C16.9342 20.6153 17.0679 20.637 17.1901 20.6904L21.8675 22.6993C22.0273 22.7658 22.1609 22.883 22.2476 23.0329C22.3343 23.1828 22.3693 23.3571 22.3472 23.5288C22.199 24.6859 21.6342 25.7493 20.7586 26.5201C19.8829 27.2909 18.7564 27.7162 17.5899 27.7164C13.985 27.7164 10.5277 26.2844 7.97866 23.7353C5.42961 21.1863 3.99756 17.729 3.99756 14.1241C3.99782 12.9576 4.42313 11.8311 5.19391 10.9554C5.96469 10.0798 7.02811 9.51504 8.1852 9.36679C8.35694 9.34473 8.53117 9.37973 8.68106 9.46642C8.83096 9.5531 8.9482 9.68666 9.01473 9.84652L11.0236 14.5339C11.0758 14.6542 11.0977 14.7854 11.0872 14.9162C11.0768 15.0469 11.0343 15.173 10.9636 15.2835L9.29457 17.822C9.22027 17.9368 9.17665 18.0688 9.16791 18.2053C9.15916 18.3418 9.18556 18.4782 9.2446 18.6016V18.6016Z" stroke="white" stroke-width="1.5" stroke-linecap="round" stroke-linejoin="round"/>
</svg>
