<svg width="13" height="13" viewBox="0 0 13 13" fill="none" xmlns="http://www.w3.org/2000/svg">
<path d="M2.88137 5.72281H4.3162V6.99454H2.88137V5.72281ZM12.9252 2.54347V11.4456C12.9252 12.1451 12.2795 12.7173 11.4903 12.7173H1.44655C1.06601 12.7173 0.701053 12.5834 0.43197 12.3449C0.162888 12.1064 0.0117188 11.7829 0.0117188 11.4456L0.0188929 2.54347C0.0188929 1.84402 0.650217 1.27173 1.44655 1.27173H2.16396V0H3.59879V1.27173H9.3381V0H10.7729V1.27173H11.4903C12.2795 1.27173 12.9252 1.84402 12.9252 2.54347ZM1.44655 3.8152H11.4903V2.54347H1.44655V3.8152ZM11.4903 11.4456V5.08694H1.44655V11.4456H11.4903ZM8.62069 6.99454H10.0555V5.72281H8.62069V6.99454ZM5.75103 6.99454H7.18586V5.72281H5.75103V6.99454Z" fill="#CEAB71"/>
</svg>
