<svg width="25" height="25" viewBox="0 0 25 25" fill="none" xmlns="http://www.w3.org/2000/svg">
<path d="M9.375 5.46875V19.5312" stroke="black" stroke-width="2" stroke-linecap="round" stroke-linejoin="round"/>
<path d="M2.34376 16.3281C2.34277 16.1482 2.40469 15.9736 2.51882 15.8345C2.63295 15.6954 2.79211 15.6006 2.96876 15.5664C3.67142 15.4172 4.30152 15.0312 4.75363 14.473C5.20575 13.9148 5.45244 13.2183 5.45244 12.5C5.45244 11.7817 5.20575 11.0852 4.75363 10.527C4.30152 9.96877 3.67142 9.58279 2.96876 9.43359C2.79211 9.39943 2.63295 9.3046 2.51882 9.16551C2.40469 9.02641 2.34277 8.8518 2.34376 8.67188V6.25C2.34376 6.0428 2.42607 5.84409 2.57258 5.69757C2.7191 5.55106 2.91781 5.46875 3.12501 5.46875H21.875C22.0822 5.46875 22.2809 5.55106 22.4274 5.69757C22.574 5.84409 22.6563 6.0428 22.6563 6.25V8.67188C22.6573 8.8518 22.5953 9.02641 22.4812 9.16551C22.3671 9.3046 22.2079 9.39943 22.0313 9.43359C21.3286 9.58279 20.6985 9.96877 20.2464 10.527C19.7943 11.0852 19.5476 11.7817 19.5476 12.5C19.5476 13.2183 19.7943 13.9148 20.2464 14.473C20.6985 15.0312 21.3286 15.4172 22.0313 15.5664C22.2079 15.6006 22.3671 15.6954 22.4812 15.8345C22.5953 15.9736 22.6573 16.1482 22.6563 16.3281V18.75C22.6563 18.9572 22.574 19.1559 22.4274 19.3024C22.2809 19.4489 22.0822 19.5312 21.875 19.5312H3.12501C2.91781 19.5312 2.7191 19.4489 2.57258 19.3024C2.42607 19.1559 2.34376 18.9572 2.34376 18.75V16.3281Z" stroke="black" stroke-width="2" stroke-linecap="round" stroke-linejoin="round"/>
</svg>
