<svg width="23" height="27" viewBox="0 0 23 27" fill="none" xmlns="http://www.w3.org/2000/svg">
<path d="M11.1574 14.4301C12.6979 14.4301 13.9467 12.9982 13.9467 11.2319C13.9467 9.46557 12.6979 8.03369 11.1574 8.03369C9.61696 8.03369 8.36816 9.46557 8.36816 11.2319C8.36816 12.9982 9.61696 14.4301 11.1574 14.4301Z" stroke="#494A4A" stroke-width="1.5" stroke-linecap="round" stroke-linejoin="round"/>
<path d="M18.1299 11.2318C18.1299 18.4278 11.1567 24.0246 11.1567 24.0246C11.1567 24.0246 4.18359 18.4278 4.18359 11.2318C4.18359 9.11129 4.91826 7.0776 6.22598 5.57815C7.5337 4.07871 9.30734 3.23633 11.1567 3.23633C13.0061 3.23633 14.7798 4.07871 16.0875 5.57815C17.3952 7.0776 18.1299 9.11129 18.1299 11.2318V11.2318Z" stroke="#494A4A" stroke-width="1.5" stroke-linecap="round" stroke-linejoin="round"/>
</svg>
