<svg width="23" height="29" viewBox="0 0 23 29" fill="none" xmlns="http://www.w3.org/2000/svg">
<path d="M13.8945 4.40332C15.0773 4.76729 16.1558 5.48157 17.0217 6.47446C17.8877 7.46736 18.5106 8.70395 18.828 10.0601" stroke="#494A4A" stroke-width="1.5" stroke-linecap="round" stroke-linejoin="round"/>
<path d="M13.1709 7.49121C13.8823 7.70784 14.531 8.13623 15.0515 8.73298C15.5719 9.32974 15.9456 10.0736 16.1345 10.8893" stroke="#494A4A" stroke-width="1.5" stroke-linecap="round" stroke-linejoin="round"/>
<path d="M8.06245 18.6016C8.78001 20.3006 9.97822 21.671 11.4619 22.4894C11.5713 22.5488 11.6923 22.5745 11.8131 22.564C11.9338 22.5535 12.0501 22.5071 12.1505 22.4294L14.3296 20.7604C14.4258 20.6855 14.5371 20.6398 14.6529 20.6276C14.7688 20.6153 14.8854 20.637 14.992 20.6904L19.0713 22.6993C19.2107 22.7658 19.3272 22.883 19.4028 23.0329C19.4784 23.1828 19.5089 23.3571 19.4897 23.5288C19.3604 24.6859 18.8678 25.7493 18.1042 26.5201C17.3405 27.2909 16.3581 27.7162 15.3407 27.7164C12.1967 27.7164 9.1815 26.2844 6.95838 23.7353C4.73526 21.1863 3.48633 17.729 3.48633 14.1241C3.48656 12.9576 3.85749 11.8311 4.52971 10.9554C5.20193 10.0798 6.12938 9.51504 7.13851 9.36679C7.28829 9.34473 7.44025 9.37973 7.57097 9.46642C7.7017 9.5531 7.80395 9.68666 7.86197 9.84652L9.61398 14.5339C9.65954 14.6542 9.6786 14.7854 9.66948 14.9162C9.66036 15.0469 9.62334 15.173 9.56168 15.2835L8.10603 17.822C8.04123 17.9368 8.00319 18.0688 7.99556 18.2053C7.98793 18.3418 8.01096 18.4782 8.06245 18.6016V18.6016Z" stroke="#494A4A" stroke-width="1.5" stroke-linecap="round" stroke-linejoin="round"/>
</svg>
