<svg width="26" height="26" viewBox="0 0 26 26" fill="none" xmlns="http://www.w3.org/2000/svg">
<path d="M15.2852 13C15.2852 14.262 14.262 15.2852 13 15.2852C11.738 15.2852 10.7148 14.262 10.7148 13C10.7148 11.738 11.738 10.7148 13 10.7148C14.262 10.7148 15.2852 11.738 15.2852 13Z" fill="#A17704"/>
<path d="M16.8594 6.09375H9.14062C7.46048 6.09375 6.09375 7.46048 6.09375 9.14062V16.8594C6.09375 18.5395 7.46048 19.9062 9.14062 19.9062H16.8594C18.5395 19.9062 19.9062 18.5395 19.9062 16.8594V9.14062C19.9062 7.46048 18.5395 6.09375 16.8594 6.09375ZM13 16.8086C10.8999 16.8086 9.19141 15.1001 9.19141 13C9.19141 10.8999 10.8999 9.19141 13 9.19141C15.1001 9.19141 16.8086 10.8999 16.8086 13C16.8086 15.1001 15.1001 16.8086 13 16.8086ZM17.3672 9.39453C16.9465 9.39453 16.6055 9.05354 16.6055 8.63281C16.6055 8.21208 16.9465 7.87109 17.3672 7.87109C17.7879 7.87109 18.1289 8.21208 18.1289 8.63281C18.1289 9.05354 17.7879 9.39453 17.3672 9.39453Z" fill="#A17704"/>
<path d="M19.1445 0H6.85547C3.07544 0 0 3.07544 0 6.85547V19.1445C0 22.9246 3.07544 26 6.85547 26H19.1445C22.9246 26 26 22.9246 26 19.1445V6.85547C26 3.07544 22.9246 0 19.1445 0ZM21.4297 16.8594C21.4297 19.3794 19.3794 21.4297 16.8594 21.4297H9.14062C6.62061 21.4297 4.57031 19.3794 4.57031 16.8594V9.14062C4.57031 6.62061 6.62061 4.57031 9.14062 4.57031H16.8594C19.3794 4.57031 21.4297 6.62061 21.4297 9.14062V16.8594Z" fill="#A17704"/>
</svg>
