<svg width="23" height="26" viewBox="0 0 23 26" fill="none" xmlns="http://www.w3.org/2000/svg">
<path d="M11.1565 16.7904C13.0821 16.7904 14.6431 15.0006 14.6431 12.7927C14.6431 10.5848 13.0821 8.79492 11.1565 8.79492C9.23091 8.79492 7.66992 10.5848 7.66992 12.7927C7.66992 15.0006 9.23091 16.7904 11.1565 16.7904Z" stroke="#494A4A" stroke-width="1.5" stroke-linecap="round" stroke-linejoin="round"/>
<path d="M15.7853 20.7885C14.2321 21.9709 12.379 22.5247 10.5201 22.3621C8.66113 22.1994 6.90281 21.3295 5.52411 19.8906C4.14541 18.4516 3.2253 16.5259 2.90978 14.4191C2.59426 12.3122 2.9014 10.1449 3.78247 8.26099C4.66354 6.37709 6.06806 4.88451 7.77319 4.0201C9.47831 3.15569 11.3864 2.96896 13.1946 3.48953C15.0028 4.0101 16.6076 5.20816 17.7544 6.89361C18.9011 8.57906 19.5242 10.6553 19.5246 12.793C19.5246 15.0018 18.8273 16.7908 17.084 16.7908C15.3407 16.7908 14.6434 15.0018 14.6434 12.793V8.79528" stroke="#494A4A" stroke-width="1.5" stroke-linecap="round" stroke-linejoin="round"/>
</svg>
