<svg width="83" height="83" viewBox="0 0 83 83" fill="none" xmlns="http://www.w3.org/2000/svg">
<path d="M54.2672 72.3563H18.089C17.4037 72.3563 16.7464 72.0841 16.2618 71.5995C15.7771 71.1148 15.5049 70.4575 15.5049 69.7722V23.2574C15.5049 22.572 15.7771 21.9147 16.2618 21.4301C16.7464 20.9455 17.4037 20.6732 18.089 20.6732H43.9306L56.8514 33.594V69.7722C56.8514 70.4575 56.5791 71.1148 56.0945 71.5995C55.6099 72.0841 54.9526 72.3563 54.2672 72.3563Z" stroke="#0091FA" stroke-width="2" stroke-linecap="round" stroke-linejoin="round"/>
<path d="M25.8418 20.6733V12.9209C25.8418 12.2355 26.1141 11.5782 26.5987 11.0936C27.0833 10.609 27.7406 10.3367 28.426 10.3367H54.2675L67.1883 23.2575V59.4357C67.1883 60.121 66.916 60.7783 66.4314 61.2629C65.9468 61.7476 65.2895 62.0198 64.6041 62.0198H56.8517" stroke="#0091FA" stroke-width="2" stroke-linecap="round" stroke-linejoin="round"/>
<path d="M28.4258 49.099H43.9307" stroke="#0091FA" stroke-width="2" stroke-linecap="round" stroke-linejoin="round"/>
<path d="M28.4258 59.4355H43.9307" stroke="#0091FA" stroke-width="2" stroke-linecap="round" stroke-linejoin="round"/>
</svg>
