<svg width="98" height="83" viewBox="0 0 98 83" fill="none" xmlns="http://www.w3.org/2000/svg">
<path d="M41.3451 58.1414C48.4808 58.1414 54.2654 52.3568 54.2654 45.2211C54.2654 38.0854 48.4808 32.3008 41.3451 32.3008C34.2094 32.3008 28.4248 38.0854 28.4248 45.2211C28.4248 52.3568 34.2094 58.1414 41.3451 58.1414Z" stroke="#0091FA" stroke-width="2" stroke-linecap="round" stroke-linejoin="round"/>
<path d="M63.3096 37.4689C66.3192 37.4639 69.2883 38.1622 71.9802 39.5081C74.6721 40.8541 77.0122 42.8104 78.8139 45.2211" stroke="#0091FA" stroke-width="2" stroke-linecap="round" stroke-linejoin="round"/>
<path d="M3.87598 45.2211C5.67771 42.8104 8.01784 40.8541 10.7097 39.5081C13.4016 38.1622 16.3707 37.4639 19.3804 37.4689" stroke="#0091FA" stroke-width="2" stroke-linecap="round" stroke-linejoin="round"/>
<path d="M22.7393 69.7696C24.4409 66.2846 27.0872 63.3477 30.3766 61.2933C33.666 59.2388 37.4663 58.1496 41.3445 58.1496C45.2227 58.1496 49.023 59.2388 52.3124 61.2933C55.6018 63.3477 58.2481 66.2846 59.9498 69.7696" stroke="#0091FA" stroke-width="2" stroke-linecap="round" stroke-linejoin="round"/>
<path d="M19.3809 37.4689C17.4191 37.4709 15.4972 36.9145 13.8399 35.8649C12.1825 34.8152 10.8581 33.3155 10.0214 31.541C9.1847 29.7666 8.87025 27.7907 9.11481 25.8442C9.35937 23.8976 10.1528 22.0609 11.4025 20.5486C12.6521 19.0363 14.3064 17.9109 16.1719 17.3038C18.0374 16.6967 20.0372 16.633 21.9375 17.1203C23.8379 17.6075 25.5603 18.6255 26.9036 20.0553C28.2469 21.4851 29.1555 23.2676 29.5234 25.1946" stroke="#0091FA" stroke-width="2" stroke-linecap="round" stroke-linejoin="round"/>
<path d="M53.168 25.1946C53.5358 23.2676 54.4445 21.4851 55.7877 20.0553C57.131 18.6255 58.8535 17.6075 60.7538 17.1203C62.6542 16.633 64.6539 16.6967 66.5195 17.3038C68.385 17.9109 70.0392 19.0363 71.2889 20.5486C72.5385 22.0609 73.332 23.8976 73.5765 25.8442C73.8211 27.7907 73.5066 29.7666 72.6699 31.541C71.8332 33.3155 70.5088 34.8152 68.8515 35.8649C67.1941 36.9145 65.2722 37.4709 63.3104 37.4689" stroke="#0091FA" stroke-width="2" stroke-linecap="round" stroke-linejoin="round"/>
<path d="M84.7118 51.8808L82.5368 57.7828C82.4724 57.9562 82.3565 58.1058 82.2046 58.2114C82.0527 58.3171 81.8722 58.3737 81.6872 58.3737C81.5022 58.3737 81.3216 58.3171 81.1697 58.2114C81.0179 58.1058 80.9019 57.9562 80.8376 57.7828L78.6626 51.8808C78.6167 51.7563 78.5443 51.6431 78.4504 51.5493C78.3565 51.4554 78.2434 51.383 78.1188 51.3371L72.2169 49.1621C72.0434 49.0977 71.8939 48.9818 71.7882 48.8299C71.6826 48.678 71.626 48.4975 71.626 48.3125C71.626 48.1275 71.6826 47.9469 71.7882 47.795C71.8939 47.6432 72.0434 47.5273 72.2169 47.4629L78.1188 45.2879C78.2434 45.242 78.3565 45.1696 78.4504 45.0757C78.5443 44.9818 78.6167 44.8687 78.6626 44.7441L80.8376 38.8422C80.9019 38.6687 81.0179 38.5192 81.1697 38.4135C81.3216 38.3079 81.5022 38.2513 81.6872 38.2513C81.8722 38.2513 82.0527 38.3079 82.2046 38.4135C82.3565 38.5192 82.4724 38.6687 82.5368 38.8422L84.7118 44.7441C84.7577 44.8687 84.8301 44.9818 84.924 45.0757C85.0178 45.1696 85.131 45.242 85.2555 45.2879L91.1575 47.4629C91.3309 47.5273 91.4805 47.6432 91.5861 47.795C91.6918 47.9469 91.7484 48.1275 91.7484 48.3125C91.7484 48.4975 91.6918 48.678 91.5861 48.8299C91.4805 48.9818 91.3309 49.0977 91.1575 49.1621L85.2555 51.3371C85.131 51.383 85.0178 51.4554 84.924 51.5493C84.8301 51.6431 84.7577 51.7563 84.7118 51.8808V51.8808Z" stroke="#0091FA" stroke-width="1.5" stroke-linecap="round" stroke-linejoin="round"/>
<path d="M88.9375 33.8125V39.25" stroke="#0091FA" stroke-width="1.5" stroke-linecap="round" stroke-linejoin="round"/>
<path d="M91.6562 36.5312H86.2188" stroke="#0091FA" stroke-width="1.5" stroke-linecap="round" stroke-linejoin="round"/>
<path d="M94.375 40.1562V43.7812" stroke="#0091FA" stroke-width="1.5" stroke-linecap="round" stroke-linejoin="round"/>
<path d="M96.1875 41.9688H92.5625" stroke="#0091FA" stroke-width="1.5" stroke-linecap="round" stroke-linejoin="round"/>
</svg>
