<svg width="83" height="83" viewBox="0 0 83 83" fill="none" xmlns="http://www.w3.org/2000/svg">
<path d="M25.8404 56.8494L7.75195 74.9378" stroke="#0091FA" stroke-width="2" stroke-linecap="round" stroke-linejoin="round"/>
<path d="M74.938 7.7522L56.8496 25.8406" stroke="#0091FA" stroke-width="2" stroke-linecap="round" stroke-linejoin="round"/>
<path d="M42.3331 22.2734L22.2795 42.327C19.2521 45.3544 19.2521 50.2628 22.2795 53.2902L29.4056 60.4163C32.433 63.4437 37.3414 63.4437 40.3688 60.4163L60.4224 40.3627C63.4499 37.3353 63.4499 32.4269 60.4224 29.3995L53.2963 22.2734C50.2689 19.2459 45.3605 19.2459 42.3331 22.2734Z" stroke="#0091FA" stroke-width="2" stroke-linecap="round" stroke-linejoin="round"/>
<path d="M29.7168 29.7167L52.9734 52.9733" stroke="#0091FA" stroke-width="2" stroke-linecap="round" stroke-linejoin="round"/>
<path d="M72.3538 51.6812L64.6016 49.0972" stroke="#0091FA" stroke-width="2" stroke-linecap="round" stroke-linejoin="round"/>
<path d="M18.0881 33.5928L10.3359 31.0087" stroke="#0091FA" stroke-width="2" stroke-linecap="round" stroke-linejoin="round"/>
<path d="M31.0088 10.3362L33.5929 18.0884" stroke="#0091FA" stroke-width="2" stroke-linecap="round" stroke-linejoin="round"/>
<path d="M49.0977 64.6016L51.6817 72.3538" stroke="#0091FA" stroke-width="2" stroke-linecap="round" stroke-linejoin="round"/>
</svg>
